<?xml version="1.0" standalone="no"?>
<!DOCTYPE svg PUBLIC "-//W3C//DTD SVG 20010904//EN"
 "http://www.w3.org/TR/2001/REC-SVG-20010904/DTD/svg10.dtd">
<svg version="1.0" xmlns="http://www.w3.org/2000/svg"
 width="850.000000pt" height="850.000000pt" viewBox="0 0 850.000000 850.000000"
 preserveAspectRatio="xMidYMid meet">
<metadata>
Created by potrace 1.14, written by Peter Selinger 2001-2017
</metadata>
<g transform="translate(0.000000,850.000000) scale(0.100000,-0.100000)"
fill="#000000" stroke="none">
<path d="M6277 5333 c-2 -1 -37 -5 -78 -8 -135 -9 -204 -15 -234 -19 -16 -3
-52 -8 -80 -11 -27 -4 -61 -8 -75 -11 -14 -2 -52 -7 -85 -10 -33 -4 -63 -8
-66 -10 -3 -1 -25 -6 -50 -9 -47 -6 -81 -12 -89 -15 -3 -1 -8 -2 -13 -1 -4 1
-27 -3 -52 -9 -43 -10 -89 -17 -145 -24 -14 -2 -59 -11 -100 -19 -41 -9 -91
-19 -110 -22 -19 -3 -42 -8 -50 -10 -8 -2 -27 -6 -42 -9 -29 -5 -169 -33 -203
-41 -69 -15 -164 -36 -185 -40 -51 -10 -72 -14 -88 -19 -9 -3 -28 -7 -42 -10
-14 -2 -90 -19 -170 -36 -80 -18 -165 -37 -190 -42 -25 -5 -54 -11 -65 -14
-11 -2 -29 -6 -40 -8 -11 -2 -38 -9 -60 -15 -22 -6 -51 -12 -65 -15 -14 -2
-25 -5 -25 -6 0 -1 -11 -3 -25 -5 -21 -3 -55 -10 -195 -41 -11 -2 -31 -6 -45
-9 -14 -3 -36 -7 -50 -10 -14 -3 -36 -7 -50 -10 -14 -3 -36 -7 -50 -10 -97
-19 -129 -25 -155 -30 -16 -3 -39 -8 -50 -10 -11 -2 -37 -6 -59 -9 -21 -4 -41
-8 -45 -10 -3 -2 -26 -7 -51 -10 -45 -6 -76 -11 -140 -22 -92 -16 -148 -25
-185 -29 -16 -2 -50 -6 -75 -9 -55 -8 -104 -13 -190 -23 -87 -9 -516 -10 -560
0 -19 4 -57 12 -85 18 -90 19 -178 51 -260 92 -44 23 -82 44 -85 47 -13 14
-72 51 -76 48 -2 -3 5 -14 16 -26 12 -12 18 -22 15 -22 -6 0 23 -45 48 -75 4
-5 18 -25 32 -43 13 -19 40 -52 60 -74 20 -21 35 -41 33 -43 -2 -2 -37 -6 -78
-9 -41 -4 -102 -9 -135 -12 -153 -16 -365 -4 -515 28 -52 11 -99 21 -105 22
-21 4 -63 19 -155 54 -52 20 -97 35 -99 33 -2 -1 -7 1 -10 6 -3 5 -26 20 -51
34 -25 13 -49 29 -55 34 -5 6 -23 21 -38 35 -25 21 -27 22 -21 5 16 -42 103
-170 147 -217 9 -10 17 -20 17 -23 0 -3 8 -13 18 -23 9 -10 36 -38 58 -63 220
-236 399 -346 664 -408 81 -18 173 -26 310 -25 157 1 289 21 469 71 147 41
221 46 267 19 88 -53 77 -212 -24 -336 -63 -78 -117 -109 -197 -115 -57 -4
-81 5 -210 81 -48 28 -54 29 -180 29 -71 0 -159 -3 -195 -8 -176 -21 -263 -24
-350 -13 -68 9 -219 58 -285 93 -50 26 -50 26 -30 3 11 -13 35 -38 54 -54 19
-17 42 -38 50 -47 28 -27 179 -139 190 -139 5 0 11 -3 13 -7 4 -10 81 -63 91
-63 3 0 25 -13 49 -29 105 -69 410 -203 538 -236 3 -1 37 -11 75 -22 68 -20
185 -49 235 -57 14 -2 36 -7 50 -10 27 -6 83 -15 145 -22 22 -3 51 -7 65 -10
110 -21 499 -21 715 0 106 11 328 41 385 52 14 3 38 7 55 10 16 2 37 6 45 9 8
2 33 7 55 10 22 4 48 8 57 11 9 3 25 6 35 9 142 28 480 120 498 135 6 5 14 8
17 5 7 -7 332 105 336 116 2 5 8 7 12 4 5 -3 26 2 47 11 21 9 43 18 48 19 14
4 362 143 383 154 9 5 28 13 42 18 14 6 45 20 70 31 25 11 73 32 107 46 60 25
130 56 220 97 24 10 45 19 47 19 3 0 33 13 68 29 96 45 426 174 578 225 74 26
142 49 150 52 8 3 16 5 17 5 2 0 33 9 70 20 163 47 330 86 448 103 17 2 30 5
30 6 0 11 373 17 430 7 22 -4 56 -9 75 -12 19 -4 64 -16 100 -28 36 -12 70
-22 75 -22 6 0 12 -3 15 -6 3 -3 32 -21 65 -39 197 -111 308 -337 275 -558 -4
-24 -3 -39 1 -35 35 36 132 253 144 323 3 18 8 36 10 39 2 4 7 35 11 71 26
231 -20 428 -144 615 -53 78 -175 204 -242 250 -25 17 -53 37 -63 47 -46 41
-378 187 -462 202 -5 1 -19 5 -30 9 -11 3 -31 9 -45 11 -152 31 -229 46 -259
50 -67 9 -146 18 -196 23 -61 5 -434 10 -438 6z"/>
</g>
</svg>
